<?xml version="1.0" standalone="no"?>
<!DOCTYPE svg PUBLIC "-//W3C//DTD SVG 20010904//EN"
 "http://www.w3.org/TR/2001/REC-SVG-20010904/DTD/svg10.dtd">
<svg version="1.0" xmlns="http://www.w3.org/2000/svg"
 width="1000.000000pt" height="1000.000000pt" viewBox="0 0 1000.000000 1000.000000"
 preserveAspectRatio="xMidYMid meet">
<metadata>
Created by potrace 1.11, written by Peter Selinger 2001-2013
</metadata>
<g transform="translate(0.000000,1000.000000) scale(0.100000,-0.100000)"
fill="#000000" stroke="none">
<path d="M4130 9977 c-3 -3 -32 -7 -65 -11 -60 -6 -137 -24 -186 -44 -15 -6
-30 -8 -33 -5 -3 4 -6 1 -6 -5 0 -7 -3 -11 -7 -10 -42 8 -243 -147 -243 -188
0 -8 -4 -14 -8 -14 -15 0 -43 -98 -47 -163 -4 -91 -15 -147 -28 -147 -5 0 -8
-3 -5 -6 4 -3 -8 -21 -26 -39 -35 -35 -108 -62 -163 -60 -18 0 -33 -3 -33 -7
0 -5 -8 -4 -19 1 -10 6 -20 9 -22 6 -2 -2 -31 -7 -64 -10 -120 -14 -267 -89
-366 -187 -57 -58 -109 -118 -101 -118 4 0 2 -4 -4 -8 -13 -7 -81 -120 -84
-137 -1 -5 -7 -17 -14 -25 -14 -17 -62 -159 -73 -217 -9 -46 -7 -251 3 -352 6
-60 4 -80 -10 -105 -25 -48 -64 -65 -135 -61 -34 2 -65 6 -70 9 -5 4 -33 11
-63 17 -29 6 -63 12 -74 15 -78 15 -223 5 -309 -23 -66 -21 -241 -112 -273
-140 -7 -7 -17 -13 -22 -13 -16 0 -150 -138 -150 -155 0 -8 -7 -18 -15 -21 -8
-4 -15 -12 -15 -19 0 -8 -6 -20 -13 -27 -17 -16 -77 -143 -77 -161 0 -8 -3
-17 -7 -20 -17 -17 -64 -190 -69 -252 -8 -115 -10 -175 -4 -175 3 0 6 -22 6
-48 0 -27 3 -53 6 -58 3 -5 11 -34 18 -64 7 -30 16 -60 21 -66 5 -6 6 -14 2
-17 -3 -4 -1 -7 5 -7 6 0 9 -7 6 -15 -4 -8 -2 -15 4 -15 6 0 13 -13 17 -30 4
-16 11 -30 16 -30 6 0 7 -4 4 -10 -3 -5 -1 -10 4 -10 6 0 11 -7 11 -15 0 -8 4
-15 9 -15 5 0 13 -10 17 -22 3 -12 12 -27 18 -34 6 -7 22 -27 36 -45 46 -59
208 -208 228 -209 6 0 12 -4 12 -8 0 -5 12 -15 28 -23 15 -8 52 -28 82 -44 68
-38 184 -73 270 -81 158 -14 164 -25 45 -87 -70 -37 -145 -97 -145 -116 0 -6
-3 -11 -8 -11 -4 0 -16 -17 -27 -37 -11 -21 -22 -40 -25 -43 -3 -3 -6 -9 -7
-15 -6 -26 -98 -287 -120 -340 -14 -33 -30 -71 -36 -85 -6 -14 -10 -28 -9 -32
1 -5 -3 -8 -8 -8 -5 0 -9 -3 -8 -7 1 -5 -5 -21 -12 -38 -7 -16 -14 -32 -15
-35 0 -3 -18 -41 -40 -85 -21 -44 -40 -82 -40 -85 -2 -5 -20 -44 -92 -201 -22
-46 -52 -115 -67 -154 -16 -38 -32 -79 -37 -90 -5 -11 -22 -56 -39 -100 -17
-44 -40 -100 -52 -125 -11 -25 -21 -49 -22 -55 -1 -5 -12 -30 -23 -55 -54
-117 -66 -146 -69 -158 -1 -8 -10 -30 -20 -50 -36 -76 -186 -437 -187 -449 0
-7 -4 -13 -9 -13 -5 0 -6 -4 -3 -10 3 -5 1 -10 -6 -10 -7 0 -10 -3 -6 -6 3 -4
-3 -24 -14 -45 -11 -22 -17 -39 -14 -39 4 0 -1 -10 -9 -22 -9 -12 -16 -30 -16
-40 0 -9 -6 -23 -13 -30 -7 -7 -13 -15 -13 -18 0 -3 -6 -21 -14 -40 -7 -19
-14 -37 -15 -40 0 -3 -9 -22 -18 -44 -9 -21 -17 -41 -17 -43 0 -4 -21 -54 -70
-168 -54 -127 -153 -374 -154 -388 -1 -10 -8 -22 -15 -26 -7 -5 -12 -12 -12
-17 1 -14 -21 -78 -30 -88 -5 -6 -9 -15 -9 -21 0 -10 -111 -226 -192 -375 -85
-156 -128 -241 -128 -255 0 -8 -5 -15 -12 -15 -6 0 -8 -3 -5 -7 4 -3 1 -13 -7
-22 -8 -9 -14 -18 -13 -21 0 -3 -11 -36 -25 -75 -48 -127 -39 -100 -82 -260
-19 -71 -37 -150 -40 -175 -4 -25 -10 -63 -13 -85 -4 -22 -7 -105 -7 -185 0
-118 4 -161 22 -230 13 -47 25 -92 29 -100 3 -8 7 -17 8 -20 27 -78 94 -216
111 -231 8 -6 14 -17 14 -23 0 -9 33 -57 93 -134 26 -32 164 -169 195 -192 19
-14 39 -30 45 -36 7 -6 50 -33 97 -60 114 -67 233 -114 330 -130 14 -2 45 -7
70 -11 58 -10 277 -10 355 0 77 9 86 11 295 62 3 1 25 7 50 14 25 7 46 13 48
12 1 -1 18 5 37 13 19 8 35 13 35 11 0 -2 15 2 34 10 18 8 36 11 40 8 3 -4 6
0 6 7 0 7 3 11 6 7 4 -3 23 0 43 8 20 7 45 16 56 21 11 4 25 8 31 9 23 5 219
79 224 84 3 3 12 7 20 8 19 3 304 127 425 184 50 23 93 42 98 41 4 -1 7 2 7 8
0 5 5 10 10 10 10 0 249 112 280 131 8 5 24 13 35 18 11 5 72 34 135 64 63 31
122 57 130 59 8 2 17 6 20 9 7 9 265 119 279 119 6 0 11 4 11 8 0 5 6 9 13 10
25 1 488 184 512 201 15 11 109 46 118 43 4 -1 7 2 7 8 0 5 6 10 14 10 8 0 27
6 43 14 50 26 108 49 121 49 6 0 12 4 12 9 0 4 8 8 18 8 10 0 23 5 30 12 7 7
12 9 12 4 0 -4 12 0 28 8 23 12 44 21 72 31 17 6 50 19 79 32 18 8 39 16 45
18 6 1 20 5 31 10 11 4 97 36 190 72 94 35 179 68 190 73 64 29 175 71 179 68
2 -2 13 6 25 16 12 11 21 16 21 12 0 -3 27 7 60 24 33 17 62 30 65 30 3 0 28
14 57 30 29 16 73 40 98 52 25 13 47 25 50 28 3 3 25 16 50 29 25 13 62 37 83
53 20 17 37 27 37 24 0 -6 28 15 55 42 8 6 18 12 24 12 6 0 11 5 11 10 0 6 4
10 10 10 9 0 19 8 116 102 75 72 124 152 129 210 5 66 28 124 57 139 30 16
120 11 173 -10 89 -35 121 -57 221 -152 78 -73 106 -92 184 -120 54 -20 83
-24 175 -23 120 1 155 6 254 36 64 19 81 25 166 64 47 21 163 92 186 114 9 8
36 33 60 55 24 22 62 62 84 89 22 27 50 60 63 75 38 43 42 50 42 61 0 5 4 10
9 10 5 0 13 10 17 23 4 12 10 24 14 27 16 10 71 145 86 209 25 105 21 197 -13
326 -20 76 -18 119 4 150 18 26 100 71 143 81 23 5 142 16 165 15 41 0 184
-11 200 -14 11 -3 47 -8 80 -12 32 -4 68 -9 80 -11 11 -3 40 -7 65 -10 43 -5
72 -9 115 -18 11 -2 47 -7 80 -11 32 -4 68 -9 80 -11 11 -2 65 -4 120 -5 97
-1 211 19 292 53 16 6 33 12 40 14 20 4 123 68 123 76 0 5 6 8 14 8 17 0 114
105 153 166 18 27 69 139 72 156 1 4 8 27 17 50 13 38 18 58 31 128 2 14 6 72
8 130 4 110 -12 211 -54 333 -25 70 -91 199 -108 210 -7 4 -13 13 -13 19 0 6
-18 29 -40 51 -23 22 -44 45 -48 51 -15 25 -155 105 -194 112 -5 1 -11 3 -15
4 -5 1 -11 2 -16 1 -13 -2 -94 40 -117 61 -68 63 -102 153 -116 303 -3 33 -7
71 -10 85 -2 14 -7 41 -10 60 -20 117 -110 230 -267 333 -79 52 -114 70 -227
120 -72 32 -95 71 -87 148 3 30 8 65 12 79 3 14 7 30 9 35 1 6 5 19 9 30 3 11
9 34 13 50 9 41 13 238 6 250 -4 6 -8 21 -10 35 -1 14 -5 32 -9 40 -3 8 -7 17
-8 20 -21 60 -66 152 -92 185 -56 72 -71 90 -113 130 -25 24 -61 56 -80 71
-19 16 -43 37 -54 46 -23 21 -179 98 -220 109 -17 4 -62 17 -99 28 -37 11 -91
23 -120 26 -77 8 -187 12 -187 5 0 -3 -23 -6 -51 -7 -28 -1 -56 -6 -62 -11 -7
-5 -27 -12 -45 -15 -46 -9 -124 -63 -217 -151 -44 -42 -84 -76 -88 -76 -4 0
-25 -11 -45 -25 -20 -14 -45 -25 -54 -25 -10 0 -18 -5 -18 -11 0 -6 -6 -9 -14
-6 -7 3 -18 1 -22 -3 -5 -5 -27 -12 -49 -16 -22 -3 -44 -7 -50 -8 -5 -1 -14
-4 -20 -8 -14 -8 -472 -5 -480 4 -4 4 -16 3 -26 -3 -11 -5 -19 -6 -19 -1 0 11
-160 10 -177 -1 -7 -5 -13 -6 -13 -3 0 7 -92 -26 -155 -55 -27 -13 -52 -23
-55 -24 -3 0 -11 -4 -17 -8 -7 -5 -13 -6 -13 -4 0 3 -16 1 -35 -3 -19 -4 -35
-4 -35 0 0 4 -10 10 -23 14 -32 8 -71 44 -98 91 -32 58 -32 153 1 219 28 55
118 151 153 162 12 4 24 10 27 15 3 5 15 10 26 12 43 6 154 98 154 128 0 4 5
20 12 36 6 15 12 33 13 38 12 50 16 111 15 235 -2 213 -9 280 -41 395 -11 39
-21 75 -22 80 -9 40 -91 182 -137 239 -58 71 -164 163 -205 177 -5 1 -18 10
-27 19 -17 16 -163 65 -223 75 -16 3 -43 8 -60 11 -130 26 -289 38 -400 31
-27 -2 -56 2 -64 7 -8 6 -16 10 -18 9 -13 -10 -35 2 -54 29 -24 33 -35 128
-19 158 4 8 10 29 13 45 3 17 10 42 16 58 6 15 8 27 6 27 -2 0 0 11 5 26 24
62 28 235 7 324 -8 35 -30 96 -40 108 -5 6 -7 12 -3 12 8 0 -56 104 -66 108
-4 2 -8 8 -8 13 0 11 -42 60 -90 104 -51 48 -140 117 -140 109 0 -4 -8 0 -17
8 -48 42 -179 90 -298 108 -56 8 -228 13 -235 7z"/>
</g>
</svg>
