<svg id="吊挂楣子_右" data-name="吊挂楣子_右" xmlns="http://www.w3.org/2000/svg" viewBox="0 0 500 500"><title>吊挂楣子_右</title><path d="M730.566,250H633.485v46.554H610.16V273.333h0V250H493.536v93.22h-69.9V319.887h46.65V250H400.315v23.333h0v23.222H376.99V250H250v23.333H353.666v23.222h0v23.332h46.649v46.666H516.861v-93.22h69.974v23.221H540.186v46.5h0v23.333h46.65V413.05h46.65v46.665h46.679v.141h23.325V413.05h23.186v70H633.487v23.333h0v93.253h46.649v23.332h0V646.3h46.539V750H750V622.966H703.461V599.634H750V552.968h0V529.636H680.136V576.3H656.812v-69.92H750V483.048h0V389.717H703.489V366.386h23.186v.278H750v-.278h0V343.053h0v-69.72h0V250ZM423.64,273.333h23.325v23.222H423.64ZM703.461,552.968h23.214V576.3H703.461ZM633.485,319.887v23.166H610.16V319.887Zm46.679,0v23.166H656.81V319.887ZM563.511,343.053V319.887h23.324v23.166Zm46.649,46.664V366.386h23.325v23.331Zm70,46.666H656.81V413.05h23.354Zm0-46.666H656.81V366.386h23.354Zm46.511-46.664H703.489V319.859h-.03V296.554H656.81V273.333h69.865Z" transform="translate(-250 -250)" style="fill:#cf0101"/></svg>