<svg id="图层_1" data-name="图层 1" xmlns="http://www.w3.org/2000/svg" viewBox="0 0 796.186 200"><title>新年快乐</title><path d="M256.732,469.565a21.094,21.094,0,0,1,9.014-2.333q4.137,0,9.014,3.6t4.878,5.939a9.746,9.746,0,0,1-.636,3.818,5.049,5.049,0,0,1-1.7,2.226,4.324,4.324,0,0,1-2.546.744l-2.333-.213a29.91,29.91,0,0,0-6.256,1.378,93.412,93.412,0,0,0-9.863,3.5q0,13.152.849,32.238l1.484,31.39a202.28,202.28,0,0,1-1.8,24.389q-1.8,14.42-2.758,17.6t-2.226,3.181q-1.7,0-3.076-7.316t-4.136-37.753q-2.758-30.431-3.181-57.794a150.621,150.621,0,0,0-22.906,16.119q-1.7,35.844-7.21,35.844-1.065,0-1.909-1.7a84.351,84.351,0,0,0-5.2-10.923,14.281,14.281,0,0,1-2.228-8.694q.423-4.139.424-13.255a161.961,161.961,0,0,1-8.271,23.328,15.751,15.751,0,0,1,.212,2.546q0,5.515-5.515,5.513a23.03,23.03,0,0,1-8.907-2.333q.209,2.76.212,9.545a102.23,102.23,0,0,1-.848,13.255q-.851,6.469-2.546,6.47t-4.454-5.515q-5.089-10.6-11.24-15.7-6.791,7.428-10.286,7.424t-6.045-4.241q-2.546-4.242-5.09-12.938a86.922,86.922,0,0,0-9.226,6.15,43.422,43.422,0,0,0-6.469,5.62,5.023,5.023,0,0,1-3.924,2.016,33.676,33.676,0,0,1-7.953-1.7,61.515,61.515,0,0,1-7.953-2.757q-2.228-1.059-2.227-2.863a13.74,13.74,0,0,1,.636-3.923,4.725,4.725,0,0,1,1.485-2.652,6.059,6.059,0,0,1,2.332-.741q4.663-.636,13.574-6.894t31.814-20.891q-3.181-2.754-13.362-3.818a13.236,13.236,0,0,1-5.3-1.378,3.486,3.486,0,0,1-1.484-3.181,6.594,6.594,0,0,1,.635-3.287q.636-1.059,2.97-1.485,4.662-.636,28.42-11.664,0-3.183.955-4.455t4.347-2.122q3.391-.843,7.423-5.2t3.818-6.468q-15.906,7.851-22.9,16.967-2.546,3.4-5.833,3.393t-5.2-3.924a18.438,18.438,0,0,1-1.908-8.164q0-4.24,3.817-10.181a23.113,23.113,0,0,1-5.938.848q-7,0-12.513-6.892t-5.515-8.907q0-2.015,1.59-2.016a12.34,12.34,0,0,1,3.182.424,10.6,10.6,0,0,0,2.652.424q5.088,0,25.663-8.7-3.4-1.908-3.394-3.074c0-.777.881-1.412,2.651-1.909a36.863,36.863,0,0,0,6.575-2.757,28.838,28.838,0,0,0,5.832-3.713q-4.245-9.966-6.787-12.3a7.959,7.959,0,0,1-2.014-2.864,8.716,8.716,0,0,1-.954-3.711,1.5,1.5,0,0,1,1.695-1.7,6.33,6.33,0,0,1,3.182.848q3.6,1.908,11.029,2.757,15.056,1.7,18.664,18.876,9.966-1.059,9.968,7.211a4.224,4.224,0,0,1-1.273,3.287,37.939,37.939,0,0,1-5.726,3.712q-11.031,6.154-16.119,12.3a36.489,36.489,0,0,1,6.257-.637,16.934,16.934,0,0,1,6.257,1.485,16.68,16.68,0,0,1,8.695-3.818q23.964-20.783,28.208-28.633-5.3,2.124-6.893,2.122t-1.59-.637q0-1.272,4.242-4.348a14.407,14.407,0,0,1,8.483-3.074q4.24,0,9.332,4.876t5.09,8.379q0,3.5-8.908,11.558t-24.6,15.907a10.057,10.057,0,0,0,.848,3.925c.563,1.345,1.273,2.086,2.121,2.226q4.24,1.272,4.242,6.361A10.05,10.05,0,0,1,220.359,479q-2.019,2.862-1.379,10.074l22.057-13.149a7.357,7.357,0,0,0-1.907-5.091,3.474,3.474,0,0,1-.637-2.438q0-1.8,2.969-4.561a7.97,7.97,0,0,1,11.664-.424A10.911,10.911,0,0,1,256.732,469.565ZM156.626,459.386a12.689,12.689,0,0,0-6.363,4.241,2.35,2.35,0,0,0,2.016.848,4.689,4.689,0,0,0,2.968-1.378q1.591-1.378,1.591-2.229A4.743,4.743,0,0,0,156.626,459.386Zm11.453,61.5a125.231,125.231,0,0,0-15.907,8.7,10.241,10.241,0,0,0,2.121,5.514,43.536,43.536,0,0,0,7.847-3.076q4.028-2.011,5.2-3.605A6.291,6.291,0,0,0,168.5,524.6,13.772,13.772,0,0,0,168.079,520.891Zm0,20.147q-2.973.216-3.818,5.092a4.032,4.032,0,0,0,3.606,1.485,10.193,10.193,0,0,0,.636-3.607A8.3,8.3,0,0,0,168.079,541.038ZM198.2,510.71a60.7,60.7,0,0,0-16.755,4.667,35.254,35.254,0,0,0-.212,5.09,27.967,27.967,0,0,0,.848,7.211,14.106,14.106,0,0,0,4.453.635Q195.226,520.256,198.2,510.71Zm5.09-10.6q2.331-4.455,2.333-14t-.53-11.878a7.509,7.509,0,0,0-3.076-4.241,10.273,10.273,0,0,1-7.211,6.574q-4.453,1.275-4.666,3.818,5.3.429,6.681,1.7t1.379,4.559q0,3.293-1.06,4.455t-6.364,3.18q-5.3,2.017-5.938,5.2a73.517,73.517,0,0,1,11.347-1.485A14.8,14.8,0,0,1,203.286,500.107Z" transform="translate(-101.907 -400)" style="fill:#f8d86a"/><path d="M446.129,500.741a107.208,107.208,0,0,1,17.816,1.168,15.467,15.467,0,0,1,10.5,7.105q3.923,5.94,3.924,7.635t-3.394,2.44a27.132,27.132,0,0,1-5.62.741q-2.228,0-11.028-2.544a115.378,115.378,0,0,0-14.529-3.394,127.9,127.9,0,0,0-17.18-.85,390.641,390.641,0,0,1-2.439,52.7q-3.077,27.888-4.771,31.072T416.012,600q-1.273,0-1.909-2.12t-3.181-18.24q-2.544-16.122-2.545-41.782,0-8.694.212-20.572-8.909,1.7-28.42,9.862T350.8,540.934q-9.863,5.621-12.3,6.255a28.138,28.138,0,0,1-6.788.637q-4.35,0-5.832-.742t-2.121-3.817a39.172,39.172,0,0,1-.637-7.742,6.948,6.948,0,0,1,4.984-7.105,105.746,105.746,0,0,1,14.953-3.711,77.48,77.48,0,0,0,33.934-15.484q.637-7.422-3.393-7.423t-4.029-6.15q0-10.818,4.241-15.906a16.641,16.641,0,0,1-8.483-4.879q-2.973-3.389-2.97-5.513a4.76,4.76,0,0,1,1.591-3.607,3.315,3.315,0,0,1,3.181-1.061,13.435,13.435,0,0,0,3.5.424q5.3,0,17.815-3.074t15.165-4.666a4.722,4.722,0,0,0,2.651-4.135q0-1.7-1.273-1.7a4.591,4.591,0,0,0-2.545.848,106.517,106.517,0,0,1-18.663,8.59q-7.636,2.44-8.59,2.439t-.955-.637q0-.636,1.273-1.272,6.786-2.752,8.908-4.454a111.138,111.138,0,0,1,14.422-9.543q-19.723.213-23.33-.954a10.163,10.163,0,0,1-5.2-3.287q-1.592-2.118-1.591-8.59t1.273-9.12q1.272-2.65,6.574-7.105a68.657,68.657,0,0,0,8.166-7.849q2.863-3.39,2.863-6.361l-.212-2.333q0-1.911,1.272-1.909a2.916,2.916,0,0,1,2.228,1.059q.954,1.065,5.2,10.712t4.877,13.255q4.24.636,14.529-2.65t12.726-4.985a7.643,7.643,0,0,1,3.711-1.7q3.817,0,8.59,5.726t4.772,8.271q0,1.908-5.2,5.2a69.356,69.356,0,0,1-14.739,6.47l.212,8.907a27.321,27.321,0,0,1,6.044-.848,7.5,7.5,0,0,1,4.772,1.909,34.887,34.887,0,0,1,5.2,5.62q2.863,3.712,2.863,4.772a2.752,2.752,0,0,1-1.273,2.227,4.5,4.5,0,0,1-2.757.954l-2.968-.213q-3.819,0-11.241,2.333.207,18.245.423,23.543A75.123,75.123,0,0,0,446.129,500.741Zm-112.62,30.118a6.017,6.017,0,0,0,1.8-.637q1.377-.636,1.378-.954c0-.211-.354-.318-1.06-.318q-2.76,0-2.758.955C332.872,530.542,333.084,530.859,333.509,530.859Zm75.08-23.754V472.322q-15.7,5.518-17.6,6.681t-1.909,2.439q0,1.272,2.122,1.061h2.121q3.39,0,8.589,4.559t5.2,8.166q0,2.544-3.817,6.681T391.2,511.134A158.532,158.532,0,0,1,408.589,507.105Zm24.815-8.272a28.859,28.859,0,0,1-6.788-6.151,48.444,48.444,0,0,0,.319,6.681c.212,1.347.848,2.015,1.909,2.015a25.576,25.576,0,0,0,3.711-.317c1.412-.213,2.121-.5,2.121-.85S434.252,499.4,433.4,498.833Z" transform="translate(-101.907 -400)" style="fill:#f8d86a"/><path d="M670.308,492.682q0,.852,3.182,3.076a12.972,12.972,0,0,0,7.634,2.227l2.97-.211q7.635,0,12.513,4.346t4.879,8.59q0,5.942-9.12,4.878a101.761,101.761,0,0,0-12.513-.848,64.308,64.308,0,0,0-36.693,11.454A48.467,48.467,0,0,1,631.6,558.112Q620.04,572,607.742,572q-5.091,0-5.091-2.97a6.191,6.191,0,0,1,1.591-3.711,6.539,6.539,0,0,1,3.076-2.439q4.876-1.485,9.755-8.271t8.06-18.24a41.044,41.044,0,0,1-10.71,1.485,13.857,13.857,0,0,1-8.484-2.44,7.109,7.109,0,0,1-3.288-5.831q0-3.391,2.333-4.667l22.694-12.936,1.909-27.785q-15.061,4.032-19.088,11.346t-9.65,26.724Q595.227,541.676,594.38,579q-.213,7.421-3.394,7.424t-9.331-4.985q-6.154-4.985-8.166-7.846a13.218,13.218,0,0,1-2.014-7.742,88.114,88.114,0,0,1,1.166-12.619q1.163-7.742,1.8-37.01-8.484,8.271-11.665,10.71t-4.877,2.439a47.467,47.467,0,0,1-7.1-1.061q-5.409-1.059-7.105-3.393t-4.242-6.468q-2.546-4.135-2.546-6.364a8.483,8.483,0,0,1,1.485-4.559q8.058-14,11.029-19.724t3.076-7.528a24.392,24.392,0,0,0,0-3.183c-.074-.917.529-1.379,1.8-1.379a19.591,19.591,0,0,1,7.423,1.379q3.39,1.382,7.636,8.8,4.453-2.754,6.362-3.818.421-18.451,1.8-37.54t3.924-21.739a7.771,7.771,0,0,1,5.725-2.653q3.183,0,3.394,3.077t3.924,7.105q3.708,4.032,3.712,11.664a97.114,97.114,0,0,1-1.379,12.09,127.232,127.232,0,0,1-3.712,16.754,12.09,12.09,0,0,0,4.772-5.09q1.377-2.967,1.38-9.968l-.213-7c0-.988.213-1.485.637-1.485q1.27,0,4.347,9.756t3.075,13.044a20.57,20.57,0,0,1-.424,4.879q-.428,1.589-4.772,7.422t-14.953,17.711a265.427,265.427,0,0,0-.847,34.781Q596.5,503.074,605.3,488.547t25.768-22.163q3.182-24.389,3.182-31.39t-2.439-10.922q-2.44-3.923-3.924-3.925t-1.908,2.333a45.858,45.858,0,0,0-.424,7.425q0,5.091-.743,5.089t-2.015-4.03a28.349,28.349,0,0,1-1.272-8.588,12.233,12.233,0,0,1,2.757-7.955,8.06,8.06,0,0,1,6.362-3.394q3.6,0,11.877,7t8.272,22.48a98.855,98.855,0,0,1-1.06,13.362q6.785-5.727,10.922-5.727t15.165,7.636q11.025,7.634,11.028,12.514a4.4,4.4,0,0,1-1.272,2.757,27.059,27.059,0,0,0-2.97,4.665Q678.793,483.35,670.308,492.682Zm-25.026.85a59.359,59.359,0,0,0,13.256-15.908q5.406-9.329,5.408-11.664c0-1.556-.392-2.333-1.167-2.333s-1.663.566-2.651,1.7L646.766,478.9Q646.13,482.505,645.282,493.532Zm7,49.2q4.452,0,18.558,2.333t19.087,5.409q4.981,3.077,7,11.24t2.014,11.03a6.287,6.287,0,0,1-1.484,4.452,4.533,4.533,0,0,1-3.394,1.592,7.481,7.481,0,0,1-3.393-.744q-1.486-.745-14.21-10.073t-18.876-14.846q-6.154-5.514-7.211-6.681a3.588,3.588,0,0,1-1.06-2.44C649.312,543.16,650.3,542.736,652.281,542.736Zm14.633-43.477a5.564,5.564,0,0,0,.212-1.7c0-.706-.5-1.2-1.483-1.485q-4.032,1.7-3.606,4.241Z" transform="translate(-101.907 -400)" style="fill:#f8d86a"/><path d="M845.07,522.8q6.573-3.606,16.756-5.09a116.473,116.473,0,0,1,15.27-1.485q8.48,0,14.74,8.166t6.257,14.315a32.837,32.837,0,0,1-2.758,12.727q-2.757,6.575-7.846,6.574-2.76,0-11.877-3.076t-17.816-7q-8.7-3.921-8.7-5.089t2.758-.955H854.4a36.509,36.509,0,0,0,12.514-2.228q6.148-2.228,7.635-3.922a7.02,7.02,0,0,0,1.485-4.772,23.628,23.628,0,0,0-.743-5.94,3.613,3.613,0,0,0-3.924-2.863q-8.7,0-25.662,8.483.636,8.274.636,19.2a91.469,91.469,0,0,1-2.333,20.891q-2.337,9.966-4.666,9.968a6.651,6.651,0,0,1-3.181-1.484q-11.031-8.064-21.21-15.271T803.4,556.1a7.009,7.009,0,0,0-2.969-.637,5.523,5.523,0,0,0-3.288,1.272q-1.7,1.275-9.755,15.908a54.193,54.193,0,0,1-4.137,6.788,3.39,3.39,0,0,1-2.651,1.058q-4.032,0-8.907-7.635t-4.879-12.619q0-4.98,3.394-12.831t5.832-9.755a8.854,8.854,0,0,1,5.621-1.909q4.877,0,6.574,3.392a3.808,3.808,0,0,0,3.394,2.334q5.09,0,38.176-14.636,0-19.932.636-28.206-35.631,24.177-42.312,29.267t-7.634,5.727a4.323,4.323,0,0,1-2.44.637q-3.609,0-6.362-5.3a27,27,0,0,1-2.758-12.618q0-7.319,1.378-10.075a5.184,5.184,0,0,1,4.243-3.076,11.536,11.536,0,0,0,4.347-1.166,12.283,12.283,0,0,0,3.394-3.5q1.91-2.65,6.469-10.923t5.832-10.816a9.82,9.82,0,0,0,1.273-4.031q0-4.024-6.045-4.772t-8.59-3.074q-2.544-2.331-2.545-7.742a16.573,16.573,0,0,1,3.606-10.179q3.6-4.774,7.953-4.985a19.24,19.24,0,0,0,9.227-3.287,142.865,142.865,0,0,0,13.573-10.286q8.694-7.209,10.18-8.59a3.245,3.245,0,0,0,.849-4.666,3.923,3.923,0,0,1-.636-2.228c0-.848.775-1.623,2.333-2.333s4.062-1.059,7.529-1.059a23.277,23.277,0,0,1,10.6,2.757q5.409,2.757,7.423,7a17.958,17.958,0,0,1,2.015,7.528q0,3.293-5.2,7.105t-41.887,23.118a32.915,32.915,0,0,1,4.242,16.225q0,8.59-4.666,20.256l25.026-11.666q.21-8.481-.53-10.6t-5.09-4.668q-4.35-2.544-4.348-5.727a5.373,5.373,0,0,1,1.166-2.756,4.918,4.918,0,0,1,2.758-2.12,36.653,36.653,0,0,1,7.211-.424q5.616,0,9.862,5.2a49.569,49.569,0,0,0,9.969,9.225,23.745,23.745,0,0,1,6.893-1.485q2.435,0,7.105,2.122a9.473,9.473,0,0,1,5.726,6.574,32.028,32.028,0,0,1,1.06,6.788q0,2.334-2.757,3.393a24.364,24.364,0,0,1-8.271,1.059q-5.519,0-14.847,3.394A256.913,256.913,0,0,0,845.07,522.8ZM829.8,538.919q-15.27,5.09-22.906,12.725,1.482,3.183,15.907,3.18,3.391,0,4.667-1.058t2.014-4.455A41.4,41.4,0,0,0,829.8,538.919Z" transform="translate(-101.907 -400)" style="fill:#f8d86a"/></svg>