<svg id="图层_1" data-name="图层 1" xmlns="http://www.w3.org/2000/svg" viewBox="0 0 646.428 200"><title>马晓彤</title><path d="M269.167,522.158a20.1,20.1,0,0,1,14.183,5.862q6.213,5.863,6.215,9.5a5.869,5.869,0,0,1-2.463,5.274,11.892,11.892,0,0,1-6.682,1.641l-8.674-.233q-37.753,0-67.06,22.509a19.023,19.023,0,0,1-11.958,3.985q-6.8,0-11.371-6.447t-4.571-16.295q0-6.332,3.048-6.331a1.507,1.507,0,0,1,1.406.937,3.752,3.752,0,0,0,3.516,2.344,19.239,19.239,0,0,0,5.862-1.171q18.522-6.562,52.521-14.07,13.13-2.812,17-5.158A17.1,17.1,0,0,1,269.167,522.158Zm14.067-36.108a98.633,98.633,0,0,1,11.254-.7,63.315,63.315,0,0,1,23.33,4.1q10.428,4.1,15.827,12.075t5.392,13.6a5.859,5.859,0,0,1-.7,3.047,94.2,94.2,0,0,0-5.862,16.649q-3.754,15.243-15.008,32.943t-22.04,22.86q-10.785,5.155-15.238,5.157-3.755,0-4.692-5.275t-12.777-16.178a118,118,0,0,0-23.564-17.233q-1.879-1.171-1.877-1.757c0-.39.236-.587.7-.587a7.469,7.469,0,0,1,2.111.469q33.526,11.727,44.08,11.722,5.392,0,8.323-2.812t7.855-13.6a151.309,151.309,0,0,0,7.854-20.985q2.931-10.2,2.933-15.476t-2.933-7.619q-2.932-2.342-9.378-4.221a56.451,56.451,0,0,0-15.592-1.877,58.129,58.129,0,0,0-18.992,3.4,48.087,48.087,0,0,0-16.647,9.5Q236.105,523.8,228.367,523.8q-5.4,0-8.2-5.275a21.283,21.283,0,0,1-2.815-9.965q0-5.393,3.284-7.035t6.8-13.717a79.027,79.027,0,0,0,3.516-21.922q0-9.846-.937-13.364a22.885,22.885,0,0,1-.937-5.511,5.459,5.459,0,0,1,1.406-3.634,4.971,4.971,0,0,1,3.987-1.642q2.577,0,8.441,6.8t5.86,21.1q0,7.973-4.221,24.15a141.833,141.833,0,0,1,19.462-4.925,240.289,240.289,0,0,1,3.751-34.7l4.456-23.447c0-1.249-.434-1.874-1.29-1.874a5.709,5.709,0,0,0-3.166,1.406q-11.726,9.143-18.521,9.145t-17.351-8.441q-10.552-8.443-10.551-10.434t3.281-1.29a20.119,20.119,0,0,0,3.283.235q7.968,0,19.812-4.574a79.436,79.436,0,0,0,20.283-11.135q2.813-2.342,8.2-2.346t17.7,7.151q12.312,7.155,12.311,16.062a8.315,8.315,0,0,1-2.7,6.446,16.392,16.392,0,0,0-3.869,4.925,39.347,39.347,0,0,0-2.344,7.386Q295.193,452.291,283.234,486.05Z" transform="translate(-176.786 -400)" style="fill:#f8d86a"/><path d="M529.894,483.7q-13.134,8.679-20.985,17.469t-7.855,10.433c0,.469.312.705.94.705q2.109,0,13.13-4.339t14.3-7.621q3.284-3.281,10.787-3.281,13.128,0,13.13,7.5t-8.91,15.71q-5.863,5.16-16.531,16.18t-11.84,12.308a3.762,3.762,0,0,0-1.173,2.462q0,1.178,5.041,1.994T530.6,558.97q6.8,6.1,17.117,6.1,5.625,0,8.91-1.875,14.069-7.74,20.045-9.5a46.378,46.378,0,0,1,13.131-1.759q7.15,0,7.153,4.456t-5.863,11.02q-5.862,6.56-16.764,10.9a58.625,58.625,0,0,1-21.807,4.336,47.5,47.5,0,0,1-20.867-4.8,53.051,53.051,0,0,1-16.06-11.373,8.392,8.392,0,0,0-6.449-2.812q-3.869,0-11.02,5.158t-7.972,6.682a2.646,2.646,0,0,1-2.462,1.524q-1.644,0-3.869-3.166a11.085,11.085,0,0,1-2.226-6.446q0-3.286,3.166-9.614t6.564-6.331a7.9,7.9,0,0,0,5.979-2.814l13.364-15.474q10.78-12.19,11.957-13.484a3.628,3.628,0,0,0,1.173-2.225.83.83,0,0,0-.937-.938,4.193,4.193,0,0,0-2.11.7q-6.332,4.223-15.945,9.379t-12.191,5.157q-4.221,0-6.566-7.854a46.918,46.918,0,0,1-2.344-12.777q0-4.924,2.813-6.1a16.372,16.372,0,0,0,8.09-6.915,59.022,59.022,0,0,1,8.323-10.2q5.154-5.154,18.524-16.647a4.179,4.179,0,0,1-2.346-2.814A25.26,25.26,0,0,1,512.9,474.8a63.338,63.338,0,0,1-10.9,5.157q-14.069,5.4-18.642,13.484t-6.8,21.218a173.006,173.006,0,0,1-4.221,19.7,53.483,53.483,0,0,0-1.992,15.474l.468,17.115a21.281,21.281,0,0,1-1.759,9.263q-1.756,3.633-3.281,3.634t-5.862-3.634a23.5,23.5,0,0,1-6.682-9.5q-8.914,13.832-13.015,13.832t-9.378-6.446q-5.274-6.453-5.276-8.091t2.346-3.751a63.379,63.379,0,0,1-7.737-17.467q-2.112-8.322-3.283-25.441t-1.173-24.032a67.088,67.088,0,0,1,2.346-16.178q2.342-9.261,4.922-9.263,1.41,0,5.394,3.752,2.341-5.154,4.22-20.632a15.366,15.366,0,0,1,2.228-6.684,14.825,14.825,0,0,1,13.482-6.682,45.336,45.336,0,0,1,8.323.587,6.34,6.34,0,0,1,4.1,2.228l6.8,9.611q5.861,8.211,6.684,11.374a21.224,21.224,0,0,1,.82,4.922,15.674,15.674,0,0,1-.233,2.932,121.648,121.648,0,0,0-3.283,19.694q-1.177,11.96-1.173,20.4,0,2.112.586,2.11c.388,0,.82-.7,1.288-2.11a156.054,156.054,0,0,1,12.9-31.887q7.735-14.068,23.446-28.6-29.313-34-29.309-40.564,0-3.982,5.041-7.151A20.52,20.52,0,0,1,495.427,400a55.239,55.239,0,0,1,13.482,1.875,50.95,50.95,0,0,1,13.365,5.393,66.463,66.463,0,0,1,12.544,9.965q6.564,6.451,7.973,8.792a9.445,9.445,0,0,1,1.406,4.925q0,7.737-11.958,20.632,2.341,6.1,3.752,9.145,8.441-5.861,14.186-5.862t7.15,2.345q1.406,2.346,1.406,20.163,0,8.679-.937,11.725a9.87,9.87,0,0,1-3.281,4.922,8.717,8.717,0,0,1-5.629,1.877Q539.975,495.9,529.894,483.7ZM454.162,496.13q-.939-26.958-1.76-32.589t-6.448-5.629a5.719,5.719,0,0,0-4.923,2.228q-1.644,2.231-7.035,18.171a147.981,147.981,0,0,1,6.331,16.882,42.688,42.688,0,0,1,5.98-.469A32.748,32.748,0,0,1,454.162,496.13Zm-16.414,24.619a68.5,68.5,0,0,0-1.173,14.07q5.628-11.487,5.629-14.771c0-.781-.353-1.173-1.055-1.173S439.309,519.5,437.748,520.749Zm17.587,24.386-.7-22.275q-7.737,11.958-16.413,28.606.233,2.109.235,7.972,6.1-2.815,6.564-4.689a11.086,11.086,0,0,1-1.641-4.574c0-1.013.429-1.523,1.29-1.523s2.228,1.1,4.1,3.283Q452.287,548.188,455.335,545.135Zm68.932-107.386q4.45-5.391,4.456-8.09t-7.268-10.433q-7.274-7.737-14.3-10.2t-10.434-2.461q-3.4,0-4.689,1.173a3.452,3.452,0,0,0-1.291,2.579,2.254,2.254,0,0,0,1.406,2.11q12.894,5.16,19.815,11.02A63.17,63.17,0,0,1,524.267,437.749ZM543.5,481.125q4.921,0,4.922-1.759t-1.288-1.757a19.941,19.941,0,0,0-3.634.469Z" transform="translate(-176.786 -400)" style="fill:#f8d86a"/><path d="M810.553,508.559a49.867,49.867,0,0,1,9.263,11.135q3.393,5.75,3.4,10.2t-5.158,8.676q-2.583,2.109-9.378,11.722A150.1,150.1,0,0,1,775.853,585q-19.467,15-31.889,15c-2.66,0-3.985-.665-3.985-1.993s1.641-3.01,4.924-5.04q13.828-8.679,36.694-42.087t22.86-35.522q0-2.112-4.1-2.11t-13.716,2.812a28.243,28.243,0,0,0-15,9.85q-2.585,3.515-4.807,3.516t-3.519-5.862a45.411,45.411,0,0,1-1.288-9.028,16.306,16.306,0,0,1,2.11-7.268,23.605,23.605,0,0,1,4.925-6.682q6.56-6.33,14.3-18.523t7.74-15q0-2.816-2.582-2.815a6.927,6.927,0,0,0-1.639.236q-9.849,3.515-15.125,3.516t-8.088-1.875a64,64,0,0,1-8.208,21.1,23.2,23.2,0,0,1,.94,5.629q0,3.988-3.87,3.165a47.333,47.333,0,0,0-9.614-.822,49.067,49.067,0,0,0-9.26.7q1.638,19.7,2.228,26.025t.586,13.131q0,17.118-2,26.847a82.543,82.543,0,0,1-7.619,20.749q-22.746-23.211-29.075-36.341t-6.331-16.178c0-.311.079-.471.236-.471q.7,0,4.689,5.16a27.4,27.4,0,0,0,8.91,7.737,22.844,22.844,0,0,0,10.787,2.579c2.029,0,3.165-.819,3.4-2.461s.351-7.19.351-16.649-.157-18.482-.468-27.08q-19.932,6.1-32.592,12.661a62.993,62.993,0,0,1-3.048,16.765,115.414,115.414,0,0,1-7.268,17.819q-4.457,8.794-5.862,10.2a4.772,4.772,0,0,1-3.516,1.406c-1.406,0-2.778-1.016-4.1-3.048a14.562,14.562,0,0,1-1.993-8.09,60.072,60.072,0,0,1,.585-8.91q.585-3.869,1.29-3.869a1.157,1.157,0,0,1,1.055.586c.236.393.43.587.587.587q2.109,0,4.689-15.241a64.026,64.026,0,0,1-13.6,5.043q-7.737,1.993-11.371,1.992a15.906,15.906,0,0,1-4.456-.351q-.824-.353-4.925-6.684t-6.328-10.434q-2.234-4.1-2.228-5.508t1.055-1.409q1.053,0,2.812,1.76a4.911,4.911,0,0,0,3.283,1.759,7.208,7.208,0,0,0,2.7-.469q16.408-7.5,34-14.07-.7-12.889-.7-23.21,0-23.918,3.28-29.311A10.85,10.85,0,0,0,673.858,434l-.468-3.048c0-1.092.662-1.642,1.992-1.642s3.009,1.289,5.04,3.868,4.221,3.869,6.567,3.869q8.2-17.814,17-26.965t16.764-9.143q4.921,0,15.24,9.5t10.316,13.95q0,1.88-2.932,8.207t-6.8,21.57q-3.868,15.245-3.634,24.385a36.121,36.121,0,0,1,5.393-.468,16.822,16.822,0,0,1,11.255,3.985,70.249,70.249,0,0,0,12.427-18.993q-1.178-20.4,5.862-23.679,1.638-6.562,2.461-6.566t1.524,1.877q11.019-10.317,11.02-16.414,0-3.747-3.752-3.752-2.58,0-3.867,3.284c-.862,2.191-1.448,3.28-1.76,3.28s-.468-.468-.468-1.406a14.624,14.624,0,0,1,2.343-8.674,7.381,7.381,0,0,1,6.331-3.283q6.094,0,18.29,7.737t12.191,13.6a3.39,3.39,0,0,1-1.17,2.814q-21.577,18.057-21.572,21.805,0,2.112,7.268,6.331a29.616,29.616,0,0,1,11.138,11.02q3.869,6.805,3.867,9.731t-5.158,9.026q-5.16,6.1-13.13,14.3a36.286,36.286,0,0,0,6.566.7,16.78,16.78,0,0,0,4.454-.469,14.145,14.145,0,0,1,1.875-.468Q809.38,503.87,810.553,508.559Zm-124.97-23.682a46.335,46.335,0,0,0,10.666-13.366q3.4-6.8,3.4-11.02t-3.047-4.22q-5.864,0-7.5,11.724a6.025,6.025,0,0,1-4.221,5.158,34.2,34.2,0,0,0-.235,4.574A33.724,33.724,0,0,0,685.583,484.877Zm34.466-31.654,2.579-29.777a2.731,2.731,0,0,0-.587-2.11q-.588-.468-4.1-.82t-7.854-.353a15.92,15.92,0,0,0-6.566,1.055q-2.231,1.056-6.915,6.1a31.747,31.747,0,0,0-6.8,10.9Q707.151,439.859,720.049,453.223Zm-.469,9.145q-12.193,15.709-20.867,20.868a150.316,150.316,0,0,1,20.632-3.517A130.795,130.795,0,0,1,719.58,462.368Z" transform="translate(-176.786 -400)" style="fill:#f8d86a"/></svg>